<svg xmlns="http://www.w3.org/2000/svg" viewBox="0 0 192 192">
  <rect width="192" height="192" rx="32" fill="#7B9E87"/>
  <rect x="28" y="72" width="136" height="72" rx="6" fill="white" opacity="0.95"/>
  <rect x="28" y="72" width="16" height="48" rx="3" fill="#3a3a3a"/>
  <rect x="52" y="72" width="16" height="48" rx="3" fill="#3a3a3a"/>
  <rect x="76" y="72" width="16" height="48" rx="3" fill="#3a3a3a"/>
  <rect x="100" y="72" width="16" height="48" rx="3" fill="#3a3a3a"/>
  <rect x="124" y="72" width="16" height="48" rx="3" fill="#3a3a3a"/>
  <rect x="148" y="72" width="16" height="48" rx="3" fill="#3a3a3a"/>
  <rect x="40" y="72" width="10" height="32" rx="3" fill="#2a2a2a"/>
  <rect x="64" y="72" width="10" height="32" rx="3" fill="#2a2a2a"/>
  <rect x="100" y="72" width="10" height="32" rx="3" fill="#2a2a2a"/>
  <rect x="124" y="72" width="10" height="32" rx="3" fill="#2a2a2a"/>
  <rect x="136" y="72" width="10" height="32" rx="3" fill="#2a2a2a"/>
</svg>
